#Comment line ignore any data following # character 
#Hierarchical Translation and Rotation (.htr) file 
[Header]	
#Header keywords are followed by a single value 
FileType HTR		#Single word string
DataType HTRS		#Translation followed by rotation and scale data
FileVersion 1		#integer
NumSegments 84		#integer
NumFrames 2		#integer
DataFrameRate 30		#integer, data frame rate in this file
EulerRotationOrder ZYX
CalibrationUnits mm
RotationUnits Degrees
GlobalAxisofGravity Y
BoneLengthAxis Y
ScaleFactor 1.00
[SegmentNames&Hierarchy]
#CHILD	PARENT
MASTER GLOBAL
root MASTER
chest root
L_mid_tent01 root
R_mid_tent01 root
spine01 root
Bip01_Neck chest
L_humerus chest
R_humerus chest
weapon_bone chest
Bip01_Head Bip01_Neck
eye_left_bone Bip01_Head
eye_right_bone Bip01_Head
L_forearm L_humerus
L_front_hand L_forearm
L_weapon_bone L_forearm
L_front_hand01_01 L_front_hand
L_front_hand02_01 L_front_hand
L_front_hand03_01 L_front_hand
L_front_hand01_02 L_front_hand01_01
L_front_hand02_02 L_front_hand02_01
L_front_hand03_02 L_front_hand03_01
R_forearm R_humerus
R_front_hand R_forearm
R_weapon_bone R_forearm
R_front_hand01_01 R_front_hand
R_front_hand02_01 R_front_hand
R_front_hand03_01 R_front_hand
R_front_hand01_02 R_front_hand01_01
R_front_hand02_02 R_front_hand02_01
R_front_hand03_02 R_front_hand03_01
null_rope01_connect L_mid_tent01
Rope1_Seg01 null_rope01_connect
Rope1_Seg02 Rope1_Seg01
Rope1_Seg03 Rope1_Seg02
Rope1_Seg04 Rope1_Seg03
Rope1_Seg05 Rope1_Seg04
Rope1_Seg06 Rope1_Seg05
Rope1_Seg07 Rope1_Seg06
Rope1_Seg09 Rope1_Seg07
L_mid_hand01 Rope1_Seg09
L_mid_hand02 Rope1_Seg09
L_mid_hand03 Rope1_Seg09
null_rope02_connect R_mid_tent01
Rope2_Seg01 null_rope02_connect
Rope2_Seg02 Rope2_Seg01
Rope2_Seg03 Rope2_Seg02
Rope2_Seg04 Rope2_Seg03
Rope2_Seg05 Rope2_Seg04
Rope2_Seg06 Rope2_Seg05
Rope2_Seg07 Rope2_Seg06
Rope2_Seg09 Rope2_Seg07
R_mid_hand01 Rope2_Seg09
R_mid_hand02 Rope2_Seg09
R_mid_hand03 Rope2_Seg09
spine02 spine01
spine03 spine02
pelvis spine03
null_rope03_connect pelvis
null_rope04_connect pelvis
Rope3_Seg01 null_rope03_connect
Rope3_Seg02 Rope3_Seg01
Rope3_Seg03 Rope3_Seg02
Rope3_Seg04 Rope3_Seg03
Rope3_Seg05 Rope3_Seg04
Rope3_Seg06 Rope3_Seg05
Rope3_Seg07 Rope3_Seg06
Rope3_Seg08 Rope3_Seg07
Rope3_Seg09 Rope3_Seg08
R_rear_hand01 Rope3_Seg09
R_rear_hand02 Rope3_Seg09
R_rear_hand03 Rope3_Seg09
Rope4_Seg01 null_rope04_connect
Rope4_Seg02 Rope4_Seg01
Rope4_Seg03 Rope4_Seg02
Rope4_Seg04 Rope4_Seg03
Rope4_Seg05 Rope4_Seg04
Rope4_Seg06 Rope4_Seg05
Rope4_Seg07 Rope4_Seg06
Rope4_Seg08 Rope4_Seg07
Rope4_Seg09 Rope4_Seg08
L_rear_hand01 Rope4_Seg09
L_rear_hand02 Rope4_Seg09
L_rear_hand03 Rope4_Seg09
[BasePosition]
#SegmentName Tx, Ty, Tz, Rx, Ry, Rz, BoneLength
MASTER 0.000000 0.000000 0.000000 -90.000000 0.000000 0.000000 10.000000 
root 0.000000 0.000000 0.000000 0.000000 0.000000 0.000000 10.000000 
chest 0.000000 0.000000 0.000000 0.000000 0.000000 0.000000 10.000000 
L_mid_tent01 0.000000 0.000000 0.000000 0.000000 0.000000 0.000000 10.000000 
R_mid_tent01 0.000000 0.000000 0.000000 0.000000 0.000000 0.000000 10.000000 
spine01 0.000000 0.000000 0.000000 0.000000 0.000000 0.000000 10.000000 
Bip01_Neck 0.000000 0.000000 0.000000 0.000000 0.000000 0.000000 10.000000 
L_humerus 0.000000 0.000000 0.000000 0.000000 0.000000 0.000000 10.000000 
R_humerus 0.000000 0.000000 0.000000 0.000000 0.000000 0.000000 10.000000 
weapon_bone 0.000000 0.000000 0.000000 0.000000 0.000000 0.000000 10.000000 
Bip01_Head 0.000000 0.000000 0.000000 0.000000 0.000000 0.000000 10.000000 
eye_left_bone 0.000000 0.000000 0.000000 0.000000 0.000000 0.000000 10.000000 
eye_right_bone 0.000000 0.000000 0.000000 0.000000 0.000000 0.000000 10.000000 
L_forearm 0.000000 0.000000 0.000000 0.000000 0.000000 0.000000 10.000000 
L_front_hand 0.000000 0.000000 0.000000 0.000000 0.000000 0.000000 10.000000 
L_weapon_bone 0.000000 0.000000 0.000000 0.000000 0.000000 0.000000 10.000000 
L_front_hand01_01 0.000000 0.000000 0.000000 0.000000 0.000000 0.000000 10.000000 
L_front_hand02_01 0.000000 0.000000 0.000000 0.000000 0.000000 0.000000 10.000000 
L_front_hand03_01 0.000000 0.000000 0.000000 0.000000 0.000000 0.000000 10.000000 
L_front_hand01_02 0.000000 0.000000 0.000000 0.000000 0.000000 0.000000 10.000000 
L_front_hand02_02 0.000000 0.000000 0.000000 0.000000 0.000000 0.000000 10.000000 
L_front_hand03_02 0.000000 0.000000 0.000000 0.000000 0.000000 0.000000 10.000000 
R_forearm 0.000000 0.000000 0.000000 0.000000 0.000000 0.000000 10.000000 
R_front_hand 0.000000 0.000000 0.000000 0.000000 0.000000 0.000000 10.000000 
R_weapon_bone 0.000000 0.000000 0.000000 0.000000 0.000000 0.000000 10.000000 
R_front_hand01_01 0.000000 0.000000 0.000000 0.000000 0.000000 0.000000 10.000000 
R_front_hand02_01 0.000000 0.000000 0.000000 0.000000 0.000000 0.000000 10.000000 
R_front_hand03_01 0.000000 0.000000 0.000000 0.000000 0.000000 0.000000 10.000000 
R_front_hand01_02 0.000000 0.000000 0.000000 0.000000 0.000000 0.000000 10.000000 
R_front_hand02_02 0.000000 0.000000 0.000000 0.000000 0.000000 0.000000 10.000000 
R_front_hand03_02 0.000000 0.000000 0.000000 0.000000 0.000000 0.000000 10.000000 
null_rope01_connect 0.000000 0.000000 0.000000 0.000000 0.000000 0.000000 10.000000 
Rope1_Seg01 0.000000 0.000000 0.000000 0.000000 0.000000 0.000000 10.000000 
Rope1_Seg02 0.000000 0.000000 0.000000 0.000000 0.000000 0.000000 10.000000 
Rope1_Seg03 0.000000 0.000000 0.000000 0.000000 0.000000 0.000000 10.000000 
Rope1_Seg04 0.000000 0.000000 0.000000 0.000000 0.000000 0.000000 10.000000 
Rope1_Seg05 0.000000 0.000000 0.000000 0.000000 0.000000 0.000000 10.000000 
Rope1_Seg06 0.000000 0.000000 0.000000 0.000000 0.000000 0.000000 10.000000 
Rope1_Seg07 0.000000 0.000000 0.000000 0.000000 0.000000 0.000000 10.000000 
Rope1_Seg09 0.000000 0.000000 0.000000 0.000000 0.000000 0.000000 10.000000 
L_mid_hand01 0.000000 0.000000 0.000000 0.000000 0.000000 0.000000 10.000000 
L_mid_hand02 0.000000 0.000000 0.000000 0.000000 0.000000 0.000000 10.000000 
L_mid_hand03 0.000000 0.000000 0.000000 0.000000 0.000000 0.000000 10.000000 
null_rope02_connect 0.000000 0.000000 0.000000 0.000000 0.000000 0.000000 10.000000 
Rope2_Seg01 0.000000 0.000000 0.000000 0.000000 0.000000 0.000000 10.000000 
Rope2_Seg02 0.000000 0.000000 0.000000 0.000000 0.000000 0.000000 10.000000 
Rope2_Seg03 0.000000 0.000000 0.000000 0.000000 0.000000 0.000000 10.000000 
Rope2_Seg04 0.000000 0.000000 0.000000 0.000000 0.000000 0.000000 10.000000 
Rope2_Seg05 0.000000 0.000000 0.000000 0.000000 0.000000 0.000000 10.000000 
Rope2_Seg06 0.000000 0.000000 0.000000 0.000000 0.000000 0.000000 10.000000 
Rope2_Seg07 0.000000 0.000000 0.000000 0.000000 0.000000 0.000000 10.000000 
Rope2_Seg09 0.000000 0.000000 0.000000 0.000000 0.000000 0.000000 10.000000 
R_mid_hand01 0.000000 0.000000 0.000000 0.000000 0.000000 0.000000 10.000000 
R_mid_hand02 0.000000 0.000000 0.000000 0.000000 0.000000 0.000000 10.000000 
R_mid_hand03 0.000000 0.000000 0.000000 0.000000 0.000000 0.000000 10.000000 
spine02 0.000000 0.000000 0.000000 0.000000 0.000000 0.000000 10.000000 
spine03 0.000000 0.000000 0.000000 0.000000 0.000000 0.000000 10.000000 
pelvis 0.000000 0.000000 0.000000 0.000000 0.000000 0.000000 10.000000 
null_rope03_connect 0.000000 0.000000 0.000000 0.000000 0.000000 0.000000 10.000000 
null_rope04_connect 0.000000 0.000000 0.000000 0.000000 0.000000 0.000000 10.000000 
Rope3_Seg01 0.000000 0.000000 0.000000 0.000000 0.000000 0.000000 10.000000 
Rope3_Seg02 0.000000 0.000000 0.000000 0.000000 0.000000 0.000000 10.000000 
Rope3_Seg03 0.000000 0.000000 0.000000 0.000000 0.000000 0.000000 10.000000 
Rope3_Seg04 0.000000 0.000000 0.000000 0.000000 0.000000 0.000000 10.000000 
Rope3_Seg05 0.000000 0.000000 0.000000 0.000000 0.000000 0.000000 10.000000 
Rope3_Seg06 0.000000 0.000000 0.000000 0.000000 0.000000 0.000000 10.000000 
Rope3_Seg07 0.000000 0.000000 0.000000 0.000000 0.000000 0.000000 10.000000 
Rope3_Seg08 0.000000 0.000000 0.000000 0.000000 0.000000 0.000000 10.000000 
Rope3_Seg09 0.000000 0.000000 0.000000 0.000000 0.000000 0.000000 10.000000 
R_rear_hand01 0.000000 0.000000 0.000000 0.000000 0.000000 0.000000 10.000000 
R_rear_hand02 0.000000 0.000000 0.000000 0.000000 0.000000 0.000000 10.000000 
R_rear_hand03 0.000000 0.000000 0.000000 0.000000 0.000000 0.000000 10.000000 
Rope4_Seg01 0.000000 0.000000 0.000000 0.000000 0.000000 0.000000 10.000000 
Rope4_Seg02 0.000000 0.000000 0.000000 0.000000 0.000000 0.000000 10.000000 
Rope4_Seg03 0.000000 0.000000 0.000000 0.000000 0.000000 0.000000 10.000000 
Rope4_Seg04 0.000000 0.000000 0.000000 0.000000 0.000000 0.000000 10.000000 
Rope4_Seg05 0.000000 0.000000 0.000000 0.000000 0.000000 0.000000 10.000000 
Rope4_Seg06 0.000000 0.000000 0.000000 0.000000 0.000000 0.000000 10.000000 
Rope4_Seg07 0.000000 0.000000 0.000000 0.000000 0.000000 0.000000 10.000000 
Rope4_Seg08 0.000000 0.000000 0.000000 0.000000 0.000000 0.000000 10.000000 
Rope4_Seg09 0.000000 0.000000 0.000000 0.000000 0.000000 0.000000 10.000000 
L_rear_hand01 0.000000 0.000000 0.000000 0.000000 0.000000 0.000000 10.000000 
L_rear_hand02 0.000000 0.000000 0.000000 0.000000 0.000000 0.000000 10.000000 
L_rear_hand03 0.000000 0.000000 0.000000 0.000000 0.000000 0.000000 10.000000 
#Beginning of Data. Separated by tabs
#Fr	Tx	Ty	Tz	Rx	Ry	Rz	SF
[MASTER]
15 1376.698853 -11.206484 1659.843872 0.001660 0.001660 0.001660 2156.503418
16 1378.486450 0.000193 1600.438965 0.001660 0.001660 0.001660 2112.257080
[root]
15 34.466953 -94.853470 404.137299 -9.602267 7.982976 -102.598129 416.547852
16 20.013275 -118.897346 462.015198 -9.459937 8.899053 -99.199371 477.488403
[chest]
15 -84.512650 -34.090519 0.000000 54.091335 26.982382 -166.874695 91.129311
16 -84.512650 -34.090519 0.000000 56.216114 28.415464 -166.794235 91.129311
[L_mid_tent01]
15 27.299009 22.179321 -249.918808 -5.275349 18.446745 67.521568 252.381790
16 27.299004 22.179335 -249.918823 -7.736674 17.262026 61.276600 252.381805
[R_mid_tent01]
15 23.228794 24.509907 226.238495 158.818100 -35.231884 62.327103 228.744751
16 23.228794 24.509907 226.238495 153.619827 -42.585861 59.937931 228.744751
[spine01]
15 -0.361383 -0.195265 0.000000 0.001778 0.001532 8.501192 0.410763
16 -0.361383 -0.195265 0.000000 0.001766 0.001546 7.583985 0.410763
[Bip01_Neck]
15 165.484543 71.581718 0.000119 176.643677 -1.657967 43.431911 180.302734
16 165.484543 71.581718 0.000119 176.643677 -1.657967 43.431919 180.302734
[L_humerus]
15 -13.983130 -135.272980 -120.471481 124.020020 79.800888 -151.657486 181.680161
16 -13.983130 -135.272980 -120.471481 138.211914 78.224945 -130.763214 181.680161
[R_humerus]
15 -13.983309 -135.273102 125.287651 179.595795 -75.380539 -80.745506 184.909012
16 -13.983309 -135.273102 125.287651 -171.749252 -69.053596 -93.243614 184.909012
[weapon_bone]
15 235.964890 -300.705902 0.000000 0.000000 -89.951546 -128.212341 382.234833
16 235.964890 -300.705902 0.000000 0.000000 -89.951546 -128.212341 382.234833
[Bip01_Head]
15 213.328079 186.039337 7.597809 13.183203 3.457682 -41.002678 283.155853
16 213.329193 186.036530 7.636108 7.212303 0.760416 -38.184608 283.155884
[eye_left_bone]
15 -24.626970 125.451866 -64.772606 0.000000 -90.000000 -99.840431 143.318359
16 -24.626970 125.451866 -64.772606 0.000000 -90.000000 -99.840431 143.318359
[eye_right_bone]
15 -24.626970 125.451866 64.327362 0.000000 -89.965736 80.156380 143.117676
16 -24.626970 125.451866 64.327362 0.000000 -90.000000 80.156387 143.117676
[L_forearm]
15 322.776093 0.000000 -0.000119 0.000431 -0.002307 -111.185738 322.776093
16 322.776093 0.000000 -0.000119 0.000431 -0.002307 -111.161766 322.776093
[L_front_hand]
15 241.149185 -0.042021 -3.300071 -178.667953 -1.835447 -27.422350 241.171753
16 241.149185 -0.042021 -3.300071 -178.667953 -1.835448 -27.422352 241.171753
[L_weapon_bone]
15 156.183838 0.000000 0.000000 0.000014 0.000007 0.000001 156.183838
16 156.183838 0.000000 0.000000 0.000014 0.000007 0.000001 156.183838
[L_front_hand01_01]
15 86.095154 20.947098 -0.655860 -0.298084 -0.518635 67.679581 88.609184
16 86.095154 20.947098 -0.655860 -0.307662 -0.512638 68.898682 88.609184
[L_front_hand02_01]
15 86.935165 -11.437475 24.513514 143.833725 -55.908619 -48.913998 91.046425
16 86.935165 -11.437475 24.513514 145.311661 -56.611847 -50.692303 91.046425
[L_front_hand03_01]
15 86.637497 -14.123976 -20.424902 -144.057922 54.129482 -50.849693 90.126129
16 86.637497 -14.123976 -20.424902 -145.445221 54.832191 -52.559975 90.126129
[L_front_hand01_02]
15 71.020905 -0.000179 0.000030 0.000317 -0.002326 -105.506187 71.020905
16 71.020905 -0.000179 0.000030 0.000318 -0.002326 -105.568314 71.020905
[L_front_hand02_02]
15 71.020927 -0.000119 0.000060 0.000317 -0.002326 -105.506187 71.020927
16 71.020927 -0.000119 0.000060 0.000318 -0.002326 -105.568314 71.020927
[L_front_hand03_02]
15 71.020905 -0.000060 0.000060 0.000317 -0.002326 -105.506187 71.020905
16 71.020905 -0.000060 0.000060 0.000318 -0.002326 -105.568314 71.020905
[R_forearm]
15 322.776428 -0.000060 0.000030 0.201068 0.068284 -109.840286 322.776428
16 322.776428 -0.000060 0.000030 0.201080 0.068247 -109.819145 322.776428
[R_front_hand]
15 238.847015 -0.006795 2.210259 -2.635298 -10.645461 -26.312506 238.857239
16 238.847015 -0.006795 2.210259 -2.635299 -10.645463 -26.312508 238.857239
[R_weapon_bone]
15 155.664093 0.002503 -0.000030 0.003487 0.001180 -90.988930 155.664078
16 155.664093 0.002503 -0.000030 0.003487 0.001180 -90.988930 155.664078
[R_front_hand01_01]
15 87.624611 14.231146 22.918642 -143.936417 -55.959175 49.146500 91.683487
16 87.624611 14.231146 22.918642 -147.366226 -57.494873 53.245708 91.683487
[R_front_hand02_01]
15 89.356956 14.367283 -19.491137 144.531738 54.354271 51.666687 92.579636
16 89.356956 14.367283 -19.491137 147.772614 55.873173 55.617859 92.579636
[R_front_hand03_01]
15 87.286232 -22.307278 -0.143439 0.103016 -0.441569 -68.007950 90.091743
16 87.286232 -22.307278 -0.143439 0.124412 -0.437303 -70.732681 90.091743
[R_front_hand01_02]
15 71.020905 0.000060 0.000119 0.002323 -0.000334 106.381714 71.020905
16 71.020905 0.000060 0.000119 0.002323 -0.000334 106.381729 71.020905
[R_front_hand02_02]
15 71.020844 -0.000030 -0.000119 0.002323 -0.000334 106.381714 71.020836
16 71.020844 -0.000030 -0.000119 0.002323 -0.000334 106.381729 71.020836
[R_front_hand03_02]
15 71.020905 0.000000 0.000030 0.002323 -0.000334 106.381714 71.020905
16 71.020905 0.000000 0.000030 0.002323 -0.000334 106.381729 71.020905
[null_rope01_connect]
15 328.732483 0.000000 -0.000238 -16.616302 -25.691143 36.169476 328.732483
16 328.732483 0.000000 -0.000238 -15.047215 -26.242031 38.140869 328.732483
[Rope1_Seg01]
15 0.000000 0.000000 0.000000 -28.344004 49.973412 145.803879 0.000000
16 0.000000 0.000000 0.000000 -30.485228 54.860512 145.480072 0.000000
[Rope1_Seg02]
15 139.999863 -0.000179 0.000000 -2.412850 16.420620 -20.390511 139.999863
16 139.999863 -0.000179 0.000000 -1.788443 15.765371 -20.479553 139.999863
[Rope1_Seg03]
15 139.999924 0.000060 -0.000060 -3.095577 16.348776 -18.992466 139.999924
16 139.999924 0.000060 -0.000060 2.812260 13.471049 -18.647766 139.999924
[Rope1_Seg04]
15 139.999924 -0.000060 -0.000119 7.537870 9.513007 -11.573270 139.999924
16 139.999924 -0.000060 -0.000119 20.753635 7.657424 -11.997572 139.999924
[Rope1_Seg05]
15 139.999832 0.000119 -0.000060 152.531754 5.585674 -15.436803 139.999832
16 139.999832 0.000119 -0.000060 141.110077 4.591368 -17.044640 139.999832
[Rope1_Seg06]
15 139.999954 0.000119 -0.000060 0.877984 -11.605384 11.595354 139.999954
16 139.999954 0.000119 -0.000060 5.559017 -14.182564 10.609354 139.999954
[Rope1_Seg07]
15 139.999985 0.000060 0.000000 0.436811 -7.090278 6.990599 139.999985
16 139.999985 0.000060 0.000000 0.582069 -7.493380 7.204631 139.999985
[Rope1_Seg09]
15 121.602913 0.000119 -0.000089 -89.793175 -1.359789 0.847147 121.602913
16 121.602913 0.000119 -0.000089 -89.793175 -1.359789 0.847147 121.602913
[L_mid_hand01]
15 103.859421 1.038730 8.195221 111.331635 -47.044144 -16.484426 104.187431
16 103.859421 1.038730 8.195221 112.678802 -49.980743 -18.276024 104.187431
[L_mid_hand02]
15 105.572853 -4.139662 -10.864139 -150.562561 35.052639 -44.910461 106.211075
16 105.572853 -4.139662 -10.864139 -152.571289 36.560638 -48.342632 106.211075
[L_mid_hand03]
15 104.641464 17.579376 -3.913581 -12.713109 13.922001 50.749584 106.179977
16 104.641464 17.579376 -3.913581 -11.926217 14.597142 53.941059 106.179977
[null_rope02_connect]
15 328.732849 0.000179 -0.000119 -151.190948 -4.249063 -45.860405 328.732849
16 328.732849 0.000179 -0.000119 -143.324875 -5.497922 -48.611992 328.732849
[Rope2_Seg01]
15 0.000004 0.000150 0.000285 -9.837095 -43.186134 171.046127 0.000322
16 0.000000 0.000153 0.000305 -13.422841 -42.590065 174.894623 0.000341
[Rope2_Seg02]
15 139.999741 -0.000060 -0.000119 8.263341 -11.219469 -16.902243 139.999756
16 139.999741 -0.000060 -0.000119 9.301901 -11.343318 -20.111078 139.999756
[Rope2_Seg03]
15 140.000107 0.000030 0.000000 9.620035 -18.909115 -23.629293 140.000107
16 140.000107 0.000030 0.000000 11.998472 -20.390427 -29.551924 140.000107
[Rope2_Seg04]
15 139.999802 0.000000 -0.000060 2.880490 -15.229567 -15.893660 139.999802
16 139.999802 0.000000 -0.000060 2.956789 -14.778414 -16.911915 139.999802
[Rope2_Seg05]
15 139.999985 -0.000060 0.000119 -0.262999 -8.751676 -7.443564 139.999985
16 139.999985 -0.000060 0.000119 -0.178692 -7.749013 -6.860788 139.999985
[Rope2_Seg06]
15 139.999893 -0.000030 -0.000119 -2.143368 -17.485083 -13.182558 139.999893
16 139.999893 -0.000030 -0.000119 -1.615809 -15.399154 -11.183516 139.999893
[Rope2_Seg07]
15 139.999893 0.000060 -0.000060 -8.606205 -25.184372 -23.769299 139.999893
16 139.999893 0.000060 -0.000060 -7.327091 -25.034752 -22.288118 139.999893
[Rope2_Seg09]
15 121.338966 0.000089 -0.000060 33.793236 -1.359788 -0.847141 121.338966
16 121.338966 0.000089 -0.000060 33.793236 -1.359788 -0.847141 121.338966
[R_mid_hand01]
15 104.680779 11.144459 -10.335981 -37.023243 32.123154 37.917080 105.778534
16 104.680779 11.144459 -10.335981 -37.204082 31.906818 37.576267 105.778534
[R_mid_hand02]
15 104.070427 2.443552 8.231699 70.253304 -42.771339 14.235763 104.424065
16 104.070427 2.443552 8.231699 70.367477 -42.427402 14.067811 104.424065
[R_mid_hand03]
15 106.028137 -11.221827 -5.996406 -169.973053 12.289117 -47.575344 106.788818
16 106.028137 -11.221827 -5.996406 -169.893616 12.226663 -47.211029 106.788818
[spine02]
15 129.756927 0.001550 0.000119 0.538087 -4.023849 -15.459611 129.756927
16 129.756927 0.001550 0.000119 0.537033 -4.023989 -15.429614 129.756927
[spine03]
15 78.614067 0.080851 -4.898988 1.998724 3.782594 17.997227 78.766602
16 78.614067 0.080795 -4.898987 2.000092 3.776574 18.062283 78.766602
[pelvis]
15 169.435242 0.051022 0.000000 -0.019831 -0.191055 1.025460 169.435257
16 169.435242 0.051022 0.000000 -0.013253 -0.191220 0.046194 169.435257
[null_rope03_connect]
15 -1.257226 -2.466202 137.391083 -9.436236 -6.399140 90.482758 137.418976
16 -1.257226 -2.466202 137.391083 -9.904065 -6.669462 88.870102 137.418976
[null_rope04_connect]
15 -1.259640 -2.480268 -137.844437 -9.436236 -6.399140 90.482758 137.872513
16 -1.259640 -2.480268 -137.844437 -9.904065 -6.669462 88.870102 137.872513
[Rope3_Seg01]
15 0.000000 0.000000 0.000000 48.806210 -45.110168 -114.849457 0.000000
16 0.000000 0.000000 0.000000 47.729027 -46.520672 -112.406944 0.000000
[Rope3_Seg02]
15 139.999924 -0.000119 0.000060 6.718061 -3.487077 18.958673 139.999924
16 139.999924 -0.000119 0.000060 6.092752 -3.943761 16.727156 139.999924
[Rope3_Seg03]
15 139.999924 -0.000119 0.000119 2.933102 -1.815551 22.600533 139.999924
16 139.999924 -0.000119 0.000119 3.064632 -2.845099 21.134045 139.999924
[Rope3_Seg04]
15 139.999924 0.000119 0.000000 -0.773279 -2.755679 16.316910 139.999924
16 139.999924 0.000119 0.000000 -0.515588 -4.022417 16.606588 139.999924
[Rope3_Seg05]
15 139.999924 -0.000238 0.000060 -0.774159 1.579504 10.720290 139.999924
16 139.999924 -0.000238 0.000060 -0.848423 0.833374 11.578849 139.999924
[Rope3_Seg06]
15 139.999893 -0.000119 -0.000060 0.118253 7.319513 15.723725 139.999893
16 139.999893 -0.000119 -0.000060 -0.437972 7.065706 18.001373 139.999893
[Rope3_Seg07]
15 139.999771 0.000060 -0.000119 -2.156763 9.757059 21.088493 139.999771
16 139.999771 0.000060 -0.000119 -5.197589 9.356278 24.280605 139.999771
[Rope3_Seg08]
15 139.999985 -0.000060 0.000000 -9.280280 4.154551 12.961141 139.999985
16 139.999985 -0.000060 0.000000 -15.366630 2.664210 13.820156 139.999985
[Rope3_Seg09]
15 90.185997 -0.000179 -0.000060 89.793228 -1.359877 -0.847183 90.185997
16 90.185997 -0.000179 -0.000060 89.793228 -1.359877 -0.847183 90.185997
[R_rear_hand01]
15 103.366196 -6.073594 -10.757982 -164.755127 19.627697 -40.352161 104.101845
16 103.366196 -6.073594 -10.757982 -164.972809 19.789427 -40.983841 104.101845
[R_rear_hand02]
15 100.509819 12.039542 -7.992327 -30.792652 24.782450 38.141541 101.543350
16 100.509819 12.039542 -7.992327 -30.544971 25.097784 38.729179 101.543350
[R_rear_hand03]
15 101.539970 5.215704 5.435467 82.448357 -41.048256 8.840384 101.819031
16 101.539970 5.215704 5.435467 82.376877 -41.657902 8.948387 101.819031
[Rope4_Seg01]
15 0.000142 -0.000038 -0.000153 -134.711090 54.214493 -137.320511 0.000212
16 0.000153 -0.000038 -0.000153 -126.947784 38.624535 -141.351868 0.000219
[Rope4_Seg02]
15 139.999985 0.000060 0.000119 -3.465929 -19.683302 0.020615 139.999985
16 139.999985 0.000060 0.000119 -8.468399 -19.144299 5.556861 139.999985
[Rope4_Seg03]
15 139.999924 0.000000 -0.000238 -0.340322 -24.754475 -0.956542 139.999924
16 139.999924 0.000000 -0.000238 -5.224584 -33.992378 6.601702 139.999924
[Rope4_Seg04]
15 139.999985 0.000000 0.000119 2.021974 -16.552361 -0.282453 139.999985
16 139.999985 0.000000 0.000119 3.097753 -24.244467 4.560169 139.999985
[Rope4_Seg05]
15 139.999802 -0.000060 -0.000119 5.049551 -20.747454 -3.087399 139.999802
16 139.999802 -0.000060 -0.000119 4.701901 -16.676485 -0.547762 139.999802
[Rope4_Seg06]
15 139.999924 0.000000 0.000060 28.310095 -31.952568 -3.817197 139.999924
16 139.999924 0.000000 0.000060 14.993394 -25.435116 -3.001764 139.999924
[Rope4_Seg07]
15 139.999802 0.000000 0.000000 57.390179 -15.706821 6.655864 139.999802
16 139.999802 0.000000 0.000000 41.291935 -18.339128 3.550405 139.999802
[Rope4_Seg08]
15 139.999924 0.000000 0.000119 23.141268 -1.268371 7.871978 139.999924
16 139.999924 0.000000 0.000119 31.299763 -5.411560 7.408837 139.999924
[Rope4_Seg09]
15 90.185791 0.000060 0.000060 -135.617828 2.228885 0.850567 90.185791
16 90.185791 0.000060 0.000060 -135.617828 2.228885 0.850567 90.185791
[L_rear_hand01]
15 101.696655 -8.392275 -7.654577 -26.201536 -29.631567 131.847122 102.329041
16 101.696655 -8.392275 -7.654577 -24.658655 -30.887184 128.783112 102.329041
[L_rear_hand02]
15 102.726799 -1.568258 5.773216 80.925568 51.072418 169.054459 102.900848
16 102.726799 -1.568258 5.773216 80.302361 53.966496 168.267441 102.900848
[L_rear_hand03]
15 104.552910 9.721220 -10.420293 -168.512375 -21.976343 -129.102875 105.519653
16 104.552910 9.721220 -10.420293 -169.691223 -22.530382 -125.995598 105.519653
